# xmcd
#
# Track frame offsets: 
#        150
#        16111
#        35493
#        50965
#        68752
#        83260
#        103023
#        117707
#        129915
#        145895
#        162982
#        182127
#        206029
#
# Disc length: 2954 seconds
#
# Revision: 1
# Processed by: cddbd v1.5.2PL0 Copyright (c) Steve Scherf et al.
# Submitted via: ExactAudioCopy v0.99pb5
#
DISCID=b40b880d
DTITLE=Doll By Doll - Doll By Doll
DYEAR=1981
DGENRE=Pop
TTITLE0=Figure it out
TTITLE1=Caritas
TTITLE2=Soon new life
TTITLE3=Main travelled roads
TTITLE4=Those in Peril
TTITLE5=I never saw the movie
TTITLE6=The perfect romance
TTITLE7=Fantastic sensation
TTITLE8=The street I love
TTITLE9=Be my friend
TTITLE10=Up
TTITLE11=A bright green field
TTITLE12=Murder on the highway
EXTD=
EXTT0=
EXTT1=
EXTT2=
EXTT3=
EXTT4=
EXTT5=
EXTT6=
EXTT7=
EXTT8=
EXTT9=
EXTT10=
EXTT11=
EXTT12=
PLAYORDER=
